<svg width="278px" height="207px"
 viewBox="0.00 0.00 278.00 207.28" xmlns="http://www.w3.org/2000/svg" xmlns:xlink="http://www.w3.org/1999/xlink">
<g id="graph0" class="graph" transform="scale(1.0 1.0) rotate(0.0) translate(4.0 203.28)">
<title>%3</title>
<polygon fill="white" stroke="transparent" points="-4,4 -4,-203.28 274,-203.28 274,4 -4,4"/>
<!-- 2253545 -->
<g id="node1" class="node">
<title>2253545</title>
<ellipse fill="#e0eeee" stroke="darkslategray" cx="135" cy="-178.07" rx="27" ry="21.43"/>
<text text-anchor="middle" x="135" y="-173.07" font-family="Ubuntu Mono" font-size="20.00">5</text>
</g>
<!-- 66309 -->
<g id="node2" class="node">
<title>66309</title>
<ellipse fill="#e0eeee" stroke="darkslategray" cx="99" cy="-99.64" rx="27" ry="21.43"/>
<text text-anchor="middle" x="99" y="-94.64" font-family="Ubuntu Mono" font-size="20.00">3</text>
</g>
<!-- 2253545&#45;&gt;66309 -->
<g id="edge1" class="edge">
<title>2253545&#45;&gt;66309</title>
<path fill="none" stroke="#ff4040" d="M125.92,-157.78C121.79,-149.02 116.83,-138.5 112.3,-128.87"/>
<polygon fill="#ff4040" stroke="#ff4040" points="115.38,-127.21 107.96,-119.65 109.05,-130.19 115.38,-127.21"/>
</g>
<!-- 193161 -->
<g id="node5" class="node">
<title>193161</title>
<ellipse fill="#e0eeee" stroke="darkslategray" cx="171" cy="-99.64" rx="27" ry="21.43"/>
<text text-anchor="middle" x="171" y="-94.64" font-family="Ubuntu Mono" font-size="20.00">7</text>
</g>
<!-- 2253545&#45;&gt;193161 -->
<g id="edge2" class="edge">
<title>2253545&#45;&gt;193161</title>
<path fill="none" stroke="darkturquoise" d="M144.08,-157.78C148.21,-149.02 153.17,-138.5 157.7,-128.87"/>
<polygon fill="darkturquoise" stroke="darkturquoise" points="160.95,-130.19 162.04,-119.65 154.62,-127.21 160.95,-130.19"/>
</g>
<!-- 1922 -->
<g id="node3" class="node">
<title>1922</title>
<ellipse fill="#e0eeee" stroke="darkslategray" cx="27" cy="-21.21" rx="27" ry="21.43"/>
<text text-anchor="middle" x="27" y="-16.21" font-family="Ubuntu Mono" font-size="20.00">2</text>
</g>
<!-- 66309&#45;&gt;1922 -->
<g id="edge3" class="edge">
<title>66309&#45;&gt;1922</title>
<path fill="none" stroke="#ff4040" d="M83.38,-82.06C73.47,-71.54 60.49,-57.77 49.49,-46.08"/>
<polygon fill="#ff4040" stroke="#ff4040" points="52,-43.64 42.59,-38.76 46.9,-48.44 52,-43.64"/>
</g>
<!-- 3844 -->
<g id="node4" class="node">
<title>3844</title>
<ellipse fill="#e0eeee" stroke="darkslategray" cx="99" cy="-21.21" rx="27" ry="21.43"/>
<text text-anchor="middle" x="99" y="-16.21" font-family="Ubuntu Mono" font-size="20.00">4</text>
</g>
<!-- 66309&#45;&gt;3844 -->
<g id="edge4" class="edge">
<title>66309&#45;&gt;3844</title>
<path fill="none" stroke="darkturquoise" d="M99,-78.16C99,-70.3 99,-61.16 99,-52.57"/>
<polygon fill="darkturquoise" stroke="darkturquoise" points="102.5,-52.49 99,-42.49 95.5,-52.49 102.5,-52.49"/>
</g>
<!-- 5766 -->
<g id="node6" class="node">
<title>5766</title>
<ellipse fill="#e0eeee" stroke="darkslategray" cx="171" cy="-21.21" rx="27" ry="21.43"/>
<text text-anchor="middle" x="171" y="-16.21" font-family="Ubuntu Mono" font-size="20.00">6</text>
</g>
<!-- 193161&#45;&gt;5766 -->
<g id="edge5" class="edge">
<title>193161&#45;&gt;5766</title>
<path fill="none" stroke="#ff4040" d="M171,-78.16C171,-70.3 171,-61.16 171,-52.57"/>
<polygon fill="#ff4040" stroke="#ff4040" points="174.5,-52.49 171,-42.49 167.5,-52.49 174.5,-52.49"/>
</g>
<!-- 7688 -->
<g id="node7" class="node">
<title>7688</title>
<ellipse fill="#e0eeee" stroke="darkslategray" cx="243" cy="-21.21" rx="27" ry="21.43"/>
<text text-anchor="middle" x="243" y="-16.21" font-family="Ubuntu Mono" font-size="20.00">8</text>
</g>
<!-- 193161&#45;&gt;7688 -->
<g id="edge6" class="edge">
<title>193161&#45;&gt;7688</title>
<path fill="none" stroke="darkturquoise" d="M186.62,-82.06C196.53,-71.54 209.51,-57.77 220.51,-46.08"/>
<polygon fill="darkturquoise" stroke="darkturquoise" points="223.1,-48.44 227.41,-38.76 218,-43.64 223.1,-48.44"/>
</g>
</g>
</svg>
